<!--?xml version="1.0" standalone="no"?-->
              <svg id="sw-js-blob-svg" viewBox="0 0 100 100" xmlns="http://www.w3.org/2000/svg" version="1.1">
                    <defs> 
                        <linearGradient id="sw-gradient" x1="0" x2="1" y1="1" y2="0">
                            <stop id="stop1" stop-color="rgba(232, 33, 33, 1)" offset="0%"></stop>
                            <stop id="stop2" stop-color="rgba(232, 33, 33, 1)" offset="100%"></stop>
                        </linearGradient>
                    </defs>
                <path fill="url(#sw-gradient)" d="M19.2,-22.6C26.3,-21.3,34.5,-17.6,35.7,-12C36.9,-6.5,31.2,0.9,27.8,8.4C24.5,15.9,23.6,23.5,19.3,27.7C15.1,31.9,7.5,32.7,-1,34.1C-9.6,35.5,-19.2,37.6,-26.6,34.4C-33.9,31.2,-39,22.8,-39.1,14.6C-39.1,6.4,-34.2,-1.5,-31.6,-10.6C-29.1,-19.6,-29,-29.7,-24.2,-31.8C-19.3,-33.8,-9.7,-27.7,-1.8,-25.3C6,-22.8,12.1,-23.9,19.2,-22.6Z" width="100%" height="100%" transform="translate(50 50)" stroke-width="0" style="transition: 0.3s;" stroke="url(#sw-gradient)"></path>
              </svg>