<svg id="visual" viewBox="0 0 900 600" width="900" height="600" xmlns="http://www.w3.org/2000/svg" xmlns:xlink="http://www.w3.org/1999/xlink" version="1.1"><rect x="0" y="0" width="900" height="600" fill="#0C0C0C"></rect><defs><linearGradient id="grad1_0" x1="33.3%" y1="0%" x2="100%" y2="100%"><stop offset="20%" stop-color="#e82121" stop-opacity="1"></stop><stop offset="80%" stop-color="#e82121" stop-opacity="1"></stop></linearGradient></defs><defs><linearGradient id="grad1_1" x1="33.3%" y1="0%" x2="100%" y2="100%"><stop offset="20%" stop-color="#e82121" stop-opacity="1"></stop><stop offset="80%" stop-color="#ad251d" stop-opacity="1"></stop></linearGradient></defs><defs><linearGradient id="grad1_2" x1="33.3%" y1="0%" x2="100%" y2="100%"><stop offset="20%" stop-color="#752219" stop-opacity="1"></stop><stop offset="80%" stop-color="#ad251d" stop-opacity="1"></stop></linearGradient></defs><defs><linearGradient id="grad1_3" x1="33.3%" y1="0%" x2="100%" y2="100%"><stop offset="20%" stop-color="#752219" stop-opacity="1"></stop><stop offset="80%" stop-color="#401a14" stop-opacity="1"></stop></linearGradient></defs><defs><linearGradient id="grad1_4" x1="33.3%" y1="0%" x2="100%" y2="100%"><stop offset="20%" stop-color="#0c0c0c" stop-opacity="1"></stop><stop offset="80%" stop-color="#401a14" stop-opacity="1"></stop></linearGradient></defs><defs><linearGradient id="grad2_0" x1="0%" y1="0%" x2="66.7%" y2="100%"><stop offset="20%" stop-color="#e82121" stop-opacity="1"></stop><stop offset="80%" stop-color="#e82121" stop-opacity="1"></stop></linearGradient></defs><defs><linearGradient id="grad2_1" x1="0%" y1="0%" x2="66.7%" y2="100%"><stop offset="20%" stop-color="#ad251d" stop-opacity="1"></stop><stop offset="80%" stop-color="#e82121" stop-opacity="1"></stop></linearGradient></defs><defs><linearGradient id="grad2_2" x1="0%" y1="0%" x2="66.7%" y2="100%"><stop offset="20%" stop-color="#ad251d" stop-opacity="1"></stop><stop offset="80%" stop-color="#752219" stop-opacity="1"></stop></linearGradient></defs><defs><linearGradient id="grad2_3" x1="0%" y1="0%" x2="66.7%" y2="100%"><stop offset="20%" stop-color="#401a14" stop-opacity="1"></stop><stop offset="80%" stop-color="#752219" stop-opacity="1"></stop></linearGradient></defs><defs><linearGradient id="grad2_4" x1="0%" y1="0%" x2="66.7%" y2="100%"><stop offset="20%" stop-color="#401a14" stop-opacity="1"></stop><stop offset="80%" stop-color="#0c0c0c" stop-opacity="1"></stop></linearGradient></defs><g transform="translate(900, 0)"><path d="M0 459.7C-42.3 432.2 -84.6 404.7 -124.8 384.2C-165.1 363.7 -203.2 350.1 -239.8 330.1C-276.4 310 -311.6 283.4 -347.1 252.2C-382.6 220.9 -418.4 184.9 -437.2 142.1C-456 99.2 -457.9 49.6 -459.7 0L0 0Z" fill="#281511"></path><path d="M0 367.8C-33.8 345.8 -67.7 323.8 -99.9 307.4C-132 291 -162.5 280.1 -191.9 264.1C-221.2 248 -249.3 226.8 -277.7 201.7C-306 176.7 -334.7 147.9 -349.8 113.6C-364.8 79.4 -366.3 39.7 -367.8 0L0 0Z" fill="#5a1f17"></path><path d="M0 275.8C-25.4 259.3 -50.8 242.8 -74.9 230.5C-99 218.2 -121.9 210.1 -143.9 198C-165.9 186 -187 170.1 -208.2 151.3C-229.5 132.5 -251 110.9 -262.3 85.2C-273.6 59.5 -274.7 29.8 -275.8 0L0 0Z" fill="#90241b"></path><path d="M0 183.9C-16.9 172.9 -33.8 161.9 -49.9 153.7C-66 145.5 -81.3 140.1 -95.9 132C-110.6 124 -124.6 113.4 -138.8 100.9C-153 88.3 -167.4 73.9 -174.9 56.8C-182.4 39.7 -183.1 19.8 -183.9 0L0 0Z" fill="#ca241f"></path><path d="M0 91.9C-8.5 86.4 -16.9 80.9 -25 76.8C-33 72.7 -40.6 70 -48 66C-55.3 62 -62.3 56.7 -69.4 50.4C-76.5 44.2 -83.7 37 -87.4 28.4C-91.2 19.8 -91.6 9.9 -91.9 0L0 0Z" fill="#e82121"></path></g><g transform="translate(0, 600)"><path d="M0 -459.7C43.4 -443.2 86.9 -426.7 135.3 -416.6C183.8 -406.5 237.3 -402.8 270.2 -371.9C303.1 -341 315.5 -282.9 326 -236.9C336.5 -190.8 345.1 -156.8 367.1 -119.3C389.1 -81.8 424.4 -40.9 459.7 0L0 0Z" fill="#281511"></path><path d="M0 -367.8C34.8 -354.5 69.5 -341.3 108.3 -333.3C147 -325.2 189.8 -322.2 216.2 -297.5C242.5 -272.8 252.4 -226.4 260.8 -189.5C269.2 -152.6 276.1 -125.4 293.7 -95.4C311.3 -65.4 339.5 -32.7 367.8 0L0 0Z" fill="#5a1f17"></path><path d="M0 -275.8C26.1 -265.9 52.1 -256 81.2 -249.9C110.3 -243.9 142.4 -241.7 162.1 -223.1C181.9 -204.6 189.3 -169.8 195.6 -142.1C201.9 -114.5 207.1 -94.1 220.3 -71.6C233.4 -49.1 254.6 -24.5 275.8 0L0 0Z" fill="#90241b"></path><path d="M0 -183.9C17.4 -177.3 34.8 -170.7 54.1 -166.6C73.5 -162.6 94.9 -161.1 108.1 -148.8C121.3 -136.4 126.2 -113.2 130.4 -94.8C134.6 -76.3 138.1 -62.7 146.8 -47.7C155.6 -32.7 169.8 -16.4 183.9 0L0 0Z" fill="#ca241f"></path><path d="M0 -91.9C8.7 -88.6 17.4 -85.3 27.1 -83.3C36.8 -81.3 47.5 -80.6 54 -74.4C60.6 -68.2 63.1 -56.6 65.2 -47.4C67.3 -38.2 69 -31.4 73.4 -23.9C77.8 -16.4 84.9 -8.2 91.9 0L0 0Z" fill="#e82121"></path></g></svg>