<!--?xml version="1.0" standalone="no"?-->
              <svg id="sw-js-blob-svg" viewBox="0 0 100 100" xmlns="http://www.w3.org/2000/svg" version="1.1">
                    <defs> 
                        <linearGradient id="sw-gradient" x1="0" x2="1" y1="1" y2="0">
                            <stop id="stop1" stop-color="rgba(255, 0, 9.178, 1)" offset="0%"></stop>
                            <stop id="stop2" stop-color="rgba(251, 31.466, 31, 1)" offset="100%"></stop>
                        </linearGradient>
                    </defs>
                <path fill="url(#sw-gradient)" d="M22.7,-25.1C29.8,-21,36.3,-14.3,37.3,-6.8C38.4,0.6,33.9,8.8,28.8,15.6C23.6,22.4,17.9,27.9,10.5,32C3.1,36.1,-6,38.8,-14.4,37C-22.8,35.1,-30.5,28.6,-35.6,20.3C-40.6,12,-43,2,-41.5,-7.4C-39.9,-16.9,-34.5,-25.7,-26.9,-29.7C-19.3,-33.8,-9.7,-33,-1,-31.9C7.8,-30.7,15.5,-29.2,22.7,-25.1Z" width="100%" height="100%" transform="translate(50 50)" stroke-width="0" style="transition: 0.3s;" stroke="url(#sw-gradient)"></path>
              </svg>