<svg id="visual" viewBox="0 0 900 600" width="900" height="600" xmlns="http://www.w3.org/2000/svg" xmlns:xlink="http://www.w3.org/1999/xlink" version="1.1"><path d="M557 600L587 595C617 590 677 580 710 570C743 560 749 550 722 540C695 530 635 520 623 510C611 500 647 490 653 480C659 470 635 460 629 450C623 440 635 430 627.5 420C620 410 593 400 581 390C569 380 572 370 569 360C566 350 557 340 558.5 330C560 320 572 310 585.5 300C599 290 614 280 629 270C644 260 659 250 675.5 240C692 230 710 220 680 210C650 200 572 190 566 180C560 170 626 160 641 150C656 140 620 130 585.5 120C551 110 518 100 513.5 90C509 80 533 70 555.5 60C578 50 599 40 596 30C593 20 566 10 552.5 5L539 0L900 0L900 5C900 10 900 20 900 30C900 40 900 50 900 60C900 70 900 80 900 90C900 100 900 110 900 120C900 130 900 140 900 150C900 160 900 170 900 180C900 190 900 200 900 210C900 220 900 230 900 240C900 250 900 260 900 270C900 280 900 290 900 300C900 310 900 320 900 330C900 340 900 350 900 360C900 370 900 380 900 390C900 400 900 410 900 420C900 430 900 440 900 450C900 460 900 470 900 480C900 490 900 500 900 510C900 520 900 530 900 540C900 550 900 560 900 570C900 580 900 590 900 595L900 600Z" fill="#ac141d"></path><path d="M422 600L452 595C482 590 542 580 575 570C608 560 614 550 597.5 540C581 530 542 520 534.5 510C527 500 551 490 551 480C551 470 527 460 528.5 450C530 440 557 430 555.5 420C554 410 524 400 513.5 390C503 380 512 370 507.5 360C503 350 485 340 476 330C467 320 467 310 470 300C473 290 479 280 494 270C509 260 533 250 555.5 240C578 230 599 220 567.5 210C536 200 452 190 443 180C434 170 500 160 522.5 150C545 140 524 130 495.5 120C467 110 431 100 431 90C431 80 467 70 482 60C497 50 491 40 479 30C467 20 449 10 440 5L431 0L540 0L553.5 5C567 10 594 20 597 30C600 40 579 50 556.5 60C534 70 510 80 514.5 90C519 100 552 110 586.5 120C621 130 657 140 642 150C627 160 561 170 567 180C573 190 651 200 681 210C711 220 693 230 676.5 240C660 250 645 260 630 270C615 280 600 290 586.5 300C573 310 561 320 559.5 330C558 340 567 350 570 360C573 370 570 380 582 390C594 400 621 410 628.5 420C636 430 624 440 630 450C636 460 660 470 654 480C648 490 612 500 624 510C636 520 696 530 723 540C750 550 744 560 711 570C678 580 618 590 588 595L558 600Z" fill="#ca1a20"></path><path d="M359 600L384.5 595C410 590 461 580 483.5 570C506 560 500 550 479 540C458 530 422 520 413 510C404 500 422 490 429.5 480C437 470 434 460 426.5 450C419 440 407 430 392 420C377 410 359 400 365 390C371 380 401 370 410 360C419 350 407 340 392 330C377 320 359 310 360.5 300C362 290 383 280 393.5 270C404 260 404 250 408.5 240C413 230 422 220 398 210C374 200 317 190 317 180C317 170 374 160 404 150C434 140 437 130 420.5 120C404 110 368 100 356 90C344 80 356 70 353 60C350 50 332 40 332 30C332 20 350 10 359 5L368 0L432 0L441 5C450 10 468 20 480 30C492 40 498 50 483 60C468 70 432 80 432 90C432 100 468 110 496.5 120C525 130 546 140 523.5 150C501 160 435 170 444 180C453 190 537 200 568.5 210C600 220 579 230 556.5 240C534 250 510 260 495 270C480 280 474 290 471 300C468 310 468 320 477 330C486 340 504 350 508.5 360C513 370 504 380 514.5 390C525 400 555 410 556.5 420C558 430 531 440 529.5 450C528 460 552 470 552 480C552 490 528 500 535.5 510C543 520 582 530 598.5 540C615 550 609 560 576 570C543 580 483 590 453 595L423 600Z" fill="#e82121"></path><path d="M215 600L219.5 595C224 590 233 580 224 570C215 560 188 550 174.5 540C161 530 161 520 158 510C155 500 149 490 138.5 480C128 470 113 460 122 450C131 440 164 430 183.5 420C203 410 209 400 210.5 390C212 380 209 370 215 360C221 350 236 340 230 330C224 320 197 310 170 300C143 290 116 280 111.5 270C107 260 125 250 132.5 240C140 230 137 220 128 210C119 200 104 190 104 180C104 170 119 160 119 150C119 140 104 130 102.5 120C101 110 113 100 120.5 90C128 80 131 70 129.5 60C128 50 122 40 138.5 30C155 20 194 10 213.5 5L233 0L369 0L360 5C351 10 333 20 333 30C333 40 351 50 354 60C357 70 345 80 357 90C369 100 405 110 421.5 120C438 130 435 140 405 150C375 160 318 170 318 180C318 190 375 200 399 210C423 220 414 230 409.5 240C405 250 405 260 394.5 270C384 280 363 290 361.5 300C360 310 378 320 393 330C408 340 420 350 411 360C402 370 372 380 366 390C360 400 378 410 393 420C408 430 420 440 427.5 450C435 460 438 470 430.5 480C423 490 405 500 414 510C423 520 459 530 480 540C501 550 507 560 484.5 570C462 580 411 590 385.5 595L360 600Z" fill="#f44f46"></path><path d="M0 600L0 595C0 590 0 580 0 570C0 560 0 550 0 540C0 530 0 520 0 510C0 500 0 490 0 480C0 470 0 460 0 450C0 440 0 430 0 420C0 410 0 400 0 390C0 380 0 370 0 360C0 350 0 340 0 330C0 320 0 310 0 300C0 290 0 280 0 270C0 260 0 250 0 240C0 230 0 220 0 210C0 200 0 190 0 180C0 170 0 160 0 150C0 140 0 130 0 120C0 110 0 100 0 90C0 80 0 70 0 60C0 50 0 40 0 30C0 20 0 10 0 5L0 0L234 0L214.5 5C195 10 156 20 139.5 30C123 40 129 50 130.5 60C132 70 129 80 121.5 90C114 100 102 110 103.5 120C105 130 120 140 120 150C120 160 105 170 105 180C105 190 120 200 129 210C138 220 141 230 133.5 240C126 250 108 260 112.5 270C117 280 144 290 171 300C198 310 225 320 231 330C237 340 222 350 216 360C210 370 213 380 211.5 390C210 400 204 410 184.5 420C165 430 132 440 123 450C114 460 129 470 139.5 480C150 490 156 500 159 510C162 520 162 530 175.5 540C189 550 216 560 225 570C234 580 225 590 220.5 595L216 600Z" fill="#fd7269"></path></svg>