<svg id="visual" viewBox="0 0 900 600" width="900" height="600" xmlns="http://www.w3.org/2000/svg" xmlns:xlink="http://www.w3.org/1999/xlink" version="1.1"><path d="M0 412L8.3 414.5C16.7 417 33.3 422 50 426C66.7 430 83.3 433 100 423C116.7 413 133.3 390 150 385.7C166.7 381.3 183.3 395.7 200 409.8C216.7 424 233.3 438 250 437C266.7 436 283.3 420 300 418.5C316.7 417 333.3 430 350 440.5C366.7 451 383.3 459 400 457.3C416.7 455.7 433.3 444.3 450 442.7C466.7 441 483.3 449 500 450C516.7 451 533.3 445 550 440.8C566.7 436.7 583.3 434.3 600 438.7C616.7 443 633.3 454 650 451.7C666.7 449.3 683.3 433.7 700 424.7C716.7 415.7 733.3 413.3 750 413.7C766.7 414 783.3 417 800 413.2C816.7 409.3 833.3 398.7 850 401.2C866.7 403.7 883.3 419.3 891.7 427.2L900 435L900 601L891.7 601C883.3 601 866.7 601 850 601C833.3 601 816.7 601 800 601C783.3 601 766.7 601 750 601C733.3 601 716.7 601 700 601C683.3 601 666.7 601 650 601C633.3 601 616.7 601 600 601C583.3 601 566.7 601 550 601C533.3 601 516.7 601 500 601C483.3 601 466.7 601 450 601C433.3 601 416.7 601 400 601C383.3 601 366.7 601 350 601C333.3 601 316.7 601 300 601C283.3 601 266.7 601 250 601C233.3 601 216.7 601 200 601C183.3 601 166.7 601 150 601C133.3 601 116.7 601 100 601C83.3 601 66.7 601 50 601C33.3 601 16.7 601 8.3 601L0 601Z" fill="#f0f3ea" stroke-linecap="round" stroke-linejoin="miter"></path></svg>